<svg xmlns="http://www.w3.org/2000/svg" fill="none" viewBox="0 0 24 24"><defs/><g clip-path="url(#clip0)"><path fill="#323232" d="M17 4.6c-.6-1-1.4-2-2.3-2.9-.4-.3-1 0-.8.5.1 1 .3 2.1.3 3.3 0 2-1.3 3.7-3.4 3.7-1.5 0-2.8-1-3.3-2.3l-.2-.5c-.1-.4-.7-.6-1-.2L6 7C4.7 9 4 11.5 4 14a8 8 0 1016 0c0-3.5-1-6.7-3-9.4zM11.8 19a3.2 3.2 0 01-3.2-3.1c0-1.7 1-2.8 2.8-3.2 1.5-.3 3-.9 4-1.9.3-.2.8-.1.9.2.2 1 .3 2.1.3 3.2 0 2.6-2.1 4.8-4.8 4.8z"/></g><defs><clipPath id="clip0"><path fill="#fff" d="M0 0h24v24H0z"/></clipPath></defs></svg>