<svg width="250px" height="250px" viewBox="0 0 250 250" version="1.1" xmlns="http://www.w3.org/2000/svg" xmlns:xlink="http://www.w3.org/1999/xlink">
  <g id="Icons/shapes" stroke="none" stroke-width="1" fill="none" fill-rule="evenodd">
    <g id="Group-5">
      <circle id="Oval-2" fill="#6b6b83" fill-rule="nonzero" cx="125" cy="125" r="125"></circle>
      <g id="Group" transform="translate(88.000000, 65.000000)" fill="#FFFFFF">
        <path d="M9.28819444,15.500434 C4.51670399,15.500434 0.607638889,19.4097222 0.607638889,24.1809896 L0.607638889,110.986545 C0.607638889,115.757813 4.51670399,119.667101 9.28819444,119.667101 L65.7118056,119.667101 C70.4832943,119.667101 74.3923611,115.757813 74.3923611,110.986545 L74.3923611,24.1809896 C74.3923611,19.4097222 70.4832943,15.500434 65.7118056,15.500434 L44.5529514,15.500434 C43.7703236,15.489369 43.0423638,15.9005581 42.6478209,16.5765497 C42.2532779,17.2525413 42.2532779,18.0886046 42.6478209,18.7645961 C43.0423638,19.4405877 43.7703236,19.8517768 44.5529514,19.8407118 L65.7118056,19.8407118 C68.1538585,19.8407118 70.0520833,21.7395833 70.0520833,24.1809896 L70.0520833,110.986545 C70.0520833,113.427951 68.1538585,115.326823 65.7118056,115.326823 L9.28819444,115.326823 C6.84614323,115.326823 4.94791667,113.427951 4.94791667,110.986545 L4.94791667,24.1809896 C4.94791667,21.7395833 6.84614323,19.8407118 9.28819444,19.8407118 L30.4470486,19.8407118 C31.2296764,19.8517768 31.9576362,19.4405877 32.3521791,18.7645961 C32.7467221,18.0886046 32.7467221,17.2525413 32.3521791,16.5765497 C31.9576362,15.9005581 31.2296764,15.489369 30.4470486,15.500434 L9.28819444,15.500434 Z" id="Shape" fill-rule="nonzero"></path>
        <path d="M30.9895833,0.309461806 C29.7910983,0.309581564 28.8195642,1.28111569 28.8194444,2.47960069 L28.8194444,22.0108507 C28.8194444,25.5807292 31.7602517,28.5212674 35.3298611,28.5212674 L39.6701389,28.5212674 C43.2397049,28.5212674 46.1805556,25.5807292 46.1805556,22.0108507 L46.1805556,2.47960069 C46.1804358,1.28111569 45.2089017,0.309581564 44.0104167,0.309461806 L30.9895833,0.309461806 Z M33.1597222,4.64973958 L41.8402778,4.64973958 L41.8402778,22.0108507 C41.8402778,23.2352431 40.8945833,24.1809896 39.6701389,24.1809896 L35.3298611,24.1809896 C34.1052865,24.1809896 33.1597222,23.2352431 33.1597222,22.0108507 L33.1597222,4.64973958 Z" id="Shape"></path>
        <polygon id="Shape" fill-rule="nonzero" points="35.3298611 6.82725694 39.6701389 6.82725694 39.6701389 11.1671007 35.3298611 11.1671007"></polygon>
        <polygon id="Shape" points="13.6284722 80.6132812 13.6284722 84.953559 61.3715278 84.953559 61.3715278 80.6132812"></polygon>
        <polygon id="Shape" points="13.6284722 91.4639757 13.6284722 95.8042535 61.3715278 95.8042535 61.3715278 91.4639757"></polygon>
        <polygon id="Shape" points="22.3090278 102.30599 22.3090278 106.646267 52.6909722 106.646267 52.6909722 102.30599"></polygon>
        <path d="M37.5,35.031684 C32.7296571,35.031684 28.8193056,38.9505208 28.8194444,43.7209201 C28.8196224,48.4908854 32.7298785,52.4014757 37.5,52.4014757 C42.2701215,52.4014757 46.1803776,48.4908854 46.1805556,43.7209201 C46.1806944,38.9505208 42.2703429,35.031684 37.5,35.031684 Z M37.5,39.3806424 C39.9210113,39.3806424 41.8403472,41.2999132 41.8402778,43.7209201 C41.8401866,46.1414931 39.9208941,48.0525174 37.5,48.0525174 C35.0791059,48.0525174 33.1598134,46.1414931 33.1597222,43.7209201 C33.1596528,41.2999132 35.0789887,39.3806424 37.5,39.3806424 Z" id="Shape" fill-rule="nonzero"></path>
        <path d="M20.1388889,54.5716146 L20.1388889,65.422309 C20.1391406,68.9917535 23.0796137,71.9327257 26.6493056,71.9327257 L48.3506944,71.9327257 C51.9203863,71.9327257 54.8608594,68.9917535 54.8611111,65.422309 L54.8611111,54.5716146 L50.5208333,54.5716146 L50.5208333,65.422309 C50.5207465,66.6462674 49.5749002,67.5924479 48.3506944,67.5924479 L26.6493056,67.5924479 C25.4250998,67.5924479 24.4792535,66.6462674 24.4791667,65.422309 L24.4791667,54.5716146 L20.1388889,54.5716146 Z" id="Shape"></path>
      </g>
    </g>
  </g>
</svg>